<?xml version="1.0" encoding="utf-8"?>
<!-- Generator: Adobe Illustrator 18.0.0, SVG Export Plug-In . SVG Version: 6.00 Build 0)  -->
<!DOCTYPE svg PUBLIC "-//W3C//DTD SVG 1.1//EN" "http://www.w3.org/Graphics/SVG/1.1/DTD/svg11.dtd">
<svg version="1.1" id="Layer_1" xmlns="http://www.w3.org/2000/svg" xmlns:xlink="http://www.w3.org/1999/xlink" x="0px" y="0px"
	 viewBox="0 0 82.9 74.5" enable-background="new 0 0 82.9 74.5" xml:space="preserve">
<g>
	<path fill="#4E4F50" d="M22.7,31.6H6c-2.1,0-3.6,1.7-3.4,3.8L2.3,68.4c0,0.1,0,0.2,0,0.3c0.3,2.2,2.3,4,4.5,4h21.4
		c2.1,0,3.6-1.6,3.4-3.7L27,34.6c0,0,0,0-0.1,0C26.3,32.9,24.6,31.6,22.7,31.6z"/>
	<path fill="#4E4F50" d="M81.1,45.9c-0.2-2.5-1.5-4.3-3.1-5.6c1.2-0.9,2-2.2,2.1-3.8c0.2-2.2-0.4-5.5-2.6-8
		c-1.1-1.2-3.2-2.7-6.5-2.7H55.8c0-2.2,0-5.7,0.1-8.7c0.2-4.4-2.2-9.8-4.7-12.7c-1.3-1.5-2.6-2.3-3.9-2.5c-0.4-0.1-0.8-0.1-1.3-0.1
		c-2.8,0-6.1,1.1-6.8,3.6c-0.3,1.1,0,2.2,0.3,3.4c0.4,1.6,0.8,3.6,0.4,6.3c-0.8,4.7-7.9,16-10.2,18.1l4.8,35.3
		c3.1,1.2,10.4,3.9,14.2,3.9h19.1c1.3,0,5.6-0.3,6.9-3.9c0.6-1.8,0.4-3.4-0.2-4.8c0-0.1,0-0.3,0-0.3c0,0,0-0.1,0-0.1
		c2.4-0.6,3.9-2.2,4.3-4.6c0.5-2.8-0.4-4.8-1.2-6C80.1,51.4,81.4,49,81.1,45.9z"/>
</g>
</svg>
